<?xml version="1.0" standalone="no"?>
<!DOCTYPE svg PUBLIC "-//W3C//DTD SVG 1.1//EN" "http://www.w3.org/Graphics/SVG/1.1/DTD/svg11.dtd" >
<svg>
<metadata>
Created by FontForge 20090622 at Thu Mar 19 12:04:36 2020
 By deploy user
Copyright (c) 2019, Ravindu Landekumbura
</metadata>
<defs>
<font id="Buyport-icons" horiz-adv-x="1000" >
  <font-face 
    font-family="Buyport-icons"
    font-weight="400"
    font-stretch="normal"
    units-per-em="1000"
    panose-1="2 0 5 9 0 0 0 0 0 0"
    ascent="800"
    descent="-200"
    cap-height="800"
    bbox="-0.333333 -200 1000.33 800"
    underline-thickness="50"
    underline-position="-50"
    unicode-range="U+0043-U+0067"
  />
<missing-glyph 
d="M33 0v666h265v-666h-265zM66 33h199v600h-199v-600z" />
    <glyph glyph-name=".notdef" 
d="M33 0v666h265v-666h-265zM66 33h199v600h-199v-600z" />
    <glyph glyph-name=".null" horiz-adv-x="0" 
 />
    <glyph glyph-name="nonmarkingreturn" 
 />
    <glyph glyph-name="C" unicode="C" 
d="M734 155l266 -267l-88 -88l-267 266q-107 -79 -239 -79q-110 0 -203.5 54.5t-148 148.5t-54.5 204t54.5 203.5t148 148t203.5 54.5t204 -54.5t148 -148t54 -203.5q0 -132 -78 -239zM406 112q77 0 141.5 38t102 102.5t37.5 141.5q0 116 -82 198.5t-198.5 82.5t-199 -82.5
t-82.5 -199t82.5 -199t198.5 -82.5z" />
    <glyph glyph-name="D" unicode="D" 
d="M854 425q9 0 15 -6t6 -15v-521q0 -34 -24.5 -58.5t-58.5 -24.5h-584q-34 0 -58.5 24.5t-24.5 58.5v521q0 9 6 15t15 6h521v83q0 69 -49 118t-118 49t-118 -49t-49 -118v0h-125q-8 -3 -3 -20l3 -3v3v20q0 121 85.5 206.5t206.5 85.5q59 0 113 -23t93 -62t62.5 -93
t23.5 -114v-83h62zM562 -10l-13 118q34 25 34 67q0 34 -24.5 58.5t-58.5 24.5q-23 0 -42 -11t-30 -30t-11 -42q0 -42 34 -67l-13 -118q-1 -9 5 -16t15 -7h84q9 0 15 7t5 16z" />
    <glyph glyph-name="E" unicode="E" 
d="M854 425q9 0 15 -6t6 -15v-521q0 -34 -24.5 -58.5t-58.5 -24.5h-584q-34 0 -58.5 24.5t-24.5 58.5v521q0 9 6 15t15 6h62v83q0 121 85.5 206.5t206.5 85.5q59 0 113 -23t93 -62t62.5 -93t23.5 -114v-83h62zM562 -10l-13 118q34 25 34 67q0 34 -24.5 58.5t-58.5 24.5
q-23 0 -42 -11t-30 -30t-11 -42q0 -42 34 -67l-13 -118q-1 -9 5 -16t15 -7h84q9 0 15 7t5 16zM667 425v83q0 69 -49 118t-118 49t-118 -49t-49 -118v-83h334z" />
    <glyph glyph-name="F" unicode="F" 
d="M935.5 246q5.5 -13 -4.5 -23l-417 -417q-6 -6 -14.5 -6t-14.5 6l-416 417q-10 10 -4.5 23t19.5 13h229v520q0 9 6 15t15 6h333q9 0 15 -6t6 -15v-520h228q14 0 19.5 -13z" />
    <glyph glyph-name="G" unicode="G" 
d="M871 334q8 -11 2 -22.5t-19 -11.5h-187v-479q0 -9 -6.5 -15t-14.5 -6h-292q-8 0 -14.5 6t-6.5 15v479h-187q-13 0 -19 11.5t2 22.5l355 458q6 8 16 8t16 -8z" />
    <glyph glyph-name="H" unicode="H" 
d="M960 564v-527q0 -16 -14 -23l-435 -211h-1q-1 -1 -2 -1l-1 -1h-2v0q-1 -1 -2 -1h-1h-3h-2h-1l-1 0.5l-1 0.5h-1h-2v1q-1 0 -2 1h-1l-434 210q-14 7 -14 23v528v1q0 16 14 22l434 210q11 6 22 0l430 -208q12 -3 17 -14q3 -5 3 -11zM499 747l-139 -68l377 -182l139 67z
M499 381l180 88l-377 182l-179 -87zM90 523v-471l384 -186v471zM524 -134l385 187v471l-154 -75v-148q0 -10 -7.5 -17.5t-18 -7.5t-17.5 7.5t-7 17.5v124l-181 -88v-471z" />
    <glyph glyph-name="I" unicode="I" 
d="M375 300q0 52 36.5 88.5t88.5 36.5t88.5 -36.5t36.5 -88.5t-36.5 -88.5t-88.5 -36.5t-88.5 36.5t-36.5 88.5zM375 -75q0 52 36.5 88.5t88.5 36.5t88.5 -36.5t36.5 -88.5t-36.5 -88.5t-88.5 -36.5t-88.5 36.5t-36.5 88.5zM375 675q0 52 36.5 88.5t88.5 36.5t88.5 -36.5
t36.5 -88.5t-36.5 -88.5t-88.5 -36.5t-88.5 36.5t-36.5 88.5z" />
    <glyph glyph-name="J" unicode="J" 
d="M914 -43q6 -11 0 -21.5t-18 -10.5h-792q-12 0 -18 10.5t0 21.5l72 119q50 84 50 182v104q0 98 58.5 175.5t150.5 104.5v75q0 34 24.5 58.5t58.5 24.5t58.5 -24.5t24.5 -58.5v-75q92 -27 150.5 -104.5t58.5 -175.5v-104q0 -98 50 -182zM369 -117h262q-18 -37 -53 -60
t-78 -23q-28 0 -54 10.5t-45.5 29.5t-31.5 43z" />
    <glyph glyph-name="K" unicode="K" 
d="M500 800q102 0 194.5 -39.5t159.5 -106.5t106.5 -159.5t39.5 -194.5t-39.5 -194.5t-106.5 -159.5t-159.5 -106.5t-194.5 -39.5t-194.5 39.5t-159.5 106.5t-106.5 159.5t-39.5 194.5t39.5 194.5t106.5 159.5t159.5 106.5t194.5 39.5zM500.5 650q-68.5 0 -117 -48
t-48.5 -116.5t48.5 -117t117 -48.5t116.5 48.5t48 117t-48 116.5t-116.5 48zM500 -69q136 0 239 88q25 21 25 53q0 70 -49 118.5t-119 48.5h-192q-70 0 -119 -48.5t-49 -118.5q0 -32 25 -53q103 -88 239 -88z" />
    <glyph glyph-name="L" unicode="L" 
d="M406 -67q0 31 22 53t53.5 22t53.5 -22t22 -53q0 -21 -10 -38t-27.5 -27.5t-37.5 -10.5q-32 0 -54 22.5t-22 53.5zM708 -67q0 31 22.5 53t53.5 22t53.5 -22t22.5 -53t-22.5 -53.5t-53.5 -22.5t-53.5 22.5t-22.5 53.5zM983 579q12 -12 15 -21t1 -23l-20 -185
q-1 -14 -8.5 -24.5t-18.5 -17t-24 -6.5l-596 -1q16 -79 22 -106q6 -20 13 -34t12.5 -20t16.5 -9.5t14.5 -3.5h15.5h476q0 -3 -1 -7.5t-4.5 -15.5t-10 -20t-19 -16t-29.5 -7h-431q-43 0 -75.5 27t-41.5 68l-98 472q-4 18 -18 29.5t-32 11.5l-108 -1l-34 74h176q26 0 45.5 -16
t25.5 -40l22 -92h665q33 0 49 -16zM913 376l15 135h-641l29 -135h597z" />
    <glyph glyph-name="M" unicode="M" 
d="M969 612q6 0 10.5 -4.5t4.5 -10.5v-406q0 -7 -4.5 -11.5t-10.5 -4.5h-78v-78q0 -7 -5 -11.5t-11 -4.5h-78v-78q0 -6 -4.5 -10.5t-11.5 -4.5h-750q-6 0 -10.5 4.5t-4.5 10.5v406q0 7 4.5 11.5t10.5 4.5h78v78q0 7 5 11.5t11 4.5h78v78q0 6 4.5 10.5t11.5 4.5h750zM766 349
v45h-45q4 -15 17 -28t28 -17zM689 394h-565q-5 -27 -27.5 -49.5t-49.5 -27.5v-222q27 -4 49.5 -26.5t27.5 -49.5h565q3 18 14.5 34.5t28 27.5t34.5 14v222q-28 5 -50 27.5t-27 49.5zM47 394v-45q10 2 19 9t16 16.5t10 19.5h-45zM47 19h45q-4 14 -17 27.5t-28 17.5v-45z
M766 19v45q-15 -4 -28 -17.5t-17 -27.5h45zM859 112v376h-718v-63h640q7 0 11.5 -4.5t4.5 -11.5v-297h62zM953 206v375h-719v-62h641q6 0 11 -4.5t5 -11.5v-297h62zM406.5 81q-51.5 0 -88.5 37t-37 88.5t36.5 88t88.5 36.5t88.5 -36.5t36.5 -88.5t-36.5 -88.5t-88 -36.5z
M406 300q-39 0 -66 -27.5t-27.5 -66.5t27 -66.5t66.5 -27.5t66.5 27.5t27.5 66.5t-27.5 66.5t-66.5 27.5zM562 191q-6 0 -10.5 4.5t-4.5 10.5v63q0 6 4.5 10.5t10.5 4.5h172q7 0 11.5 -4.5t4.5 -10.5v-63q0 -6 -4.5 -10.5t-11.5 -4.5h-172zM578 253v-31h141v31h-141z
M562 144q-6 0 -10.5 4.5t-4.5 11t4.5 11t10.5 4.5h172q7 0 11.5 -4.5t4.5 -11t-4.5 -11t-11.5 -4.5h-172zM250 222q6 0 11 -4.5t5 -11t-5 -11t-11 -4.5h-172q-6 0 -11 4.5t-5 11t5 11t11 4.5h172zM62 253.5q0 6.5 5 11t11 4.5h172q6 0 11 -4.5t5 -11t-5 -11t-11 -4.5h-172
q-6 0 -11 4.5t-5 11zM188 175q6 0 10.5 -4.5t4.5 -11t-4.5 -11t-10.5 -4.5h-110q-6 0 -11 4.5t-5 11t5 11t11 4.5h110zM250 175q6 0 11 -4.5t5 -11t-5 -11t-11 -4.5h-16q-6 0 -10.5 4.5t-4.5 11t4.5 11t10.5 4.5h16z" />
    <glyph glyph-name="N" unicode="N" 
d="M868 420q64 -23 93 -35.5t34 -17.5t5 -13v-104q0 -8 -5 -13t-34 -18t-93 -38l-5 -2l-18 -44l2 -5q29 -61 40.5 -89.5t11 -36.5t-5.5 -12l-75 -74q-6 -5 -14 -5q-17 0 -130 48l-4 2l-46 -19l-2 -4q-23 -63 -36 -91.5t-18 -33.5t-13 -5h-106q-8 0 -13 5t-18.5 33t-38.5 91
l-2 5l-46 18l-4 -2q-111 -50 -128 -50q-8 0 -13 5l-75 74q-6 3 -6 12t10.5 37.5t38.5 90.5l2 5l-19 44l-5 2q-64 23 -93 35.5t-34 17.5t-5 13v104q0 8 5 13t34 18t93 38l5 2l18 44l-2 5q-29 61 -40.5 89.5t-11 36.5t5.5 12l76 74q5 5 13 5q17 0 130 -48l4 -2l46 19l2 4
q23 63 36 91.5t18 33.5t13 5h106q6 0 9.5 -2t11 -14t19 -38.5t30.5 -74.5l2 -5l46 -18l4 2q111 50 128 50q8 0 13 -5l75 -73q5 -5 5.5 -9t-2.5 -17.5t-14 -40.5t-32 -74l-2 -5l19 -44zM500 132q71 0 121.5 49t50.5 119t-50.5 119t-121.5 49t-121.5 -49t-50.5 -119t50.5 -119
t121.5 -49z" />
    <glyph glyph-name="O" unicode="O" 
d="M101 190q26 0 44 -18.5t18 -44t-18 -43.5t-44 -18q-17 0 -31.5 8t-22.5 22.5t-8 31.5q0 25 18 43.5t44 18.5zM101 85q18 0 30.5 12.5t12.5 30.5t-12.5 30.5t-30.5 12.5q-12 0 -22 -6t-15.5 -16t-5.5 -21q0 -18 12.5 -30.5t30.5 -12.5zM1000 292h-11v-66h11v-60
q0 -5 -3.5 -8.5t-8.5 -3.5h-62q-10 22 -30.5 35.5t-45.5 13.5t-45.5 -13.5t-30.5 -35.5h-42q-12 0 -12 36v312q0 12 12 12h205q24 0 24 -12l39 -171v-39zM812 331v9h-45v-9h45zM758 355h191l-20 127h-171v-127zM957 182v29h-60q19 -12 28 -29h32zM42 222h649v-74h-344
q-9 24 -30.5 39.5t-48 15.5t-48 -15.5t-30.5 -39.5h-8q-6 16 -17.5 28.5t-27.5 19.5t-33 7q-27 0 -48 -15t-30 -39q-12 4 -19 13.5t-7 21.5v3q0 11 7 21v29v297h674l-1 -297h-638v-15zM847 190q26 0 44 -18.5t18 -44t-18 -43.5t-44 -18t-44 18t-18 43.5t18 44t44 18.5z
M847 85q18 0 30.5 12.5t12.5 30.5q0 8 -3.5 16t-9 14t-13.5 9.5t-17 3.5q-12 0 -21.5 -6t-15.5 -16t-6 -21.5t6 -21.5t15.5 -15.5t21.5 -5.5zM265.5 190q25.5 0 44 -18.5t18.5 -43.5q0 -17 -8.5 -31.5t-22.5 -22.5t-31 -8t-31.5 8t-22.5 22.5t-8 31.5q0 25 18 43.5
t43.5 18.5zM266 85q18 0 30.5 12.5t12.5 30.5t-12.5 30.5t-30.5 12.5t-30.5 -12.5t-12.5 -30.5t12.5 -30.5t30.5 -12.5z" />
    <glyph glyph-name="P" unicode="P" 
d="M500 800q136 0 251 -67t182 -182t67 -251t-67 -251t-182 -182t-251 -67t-251 67t-182 182t-67 251t67 251t182 182t251 67zM500 -167q95 0 181.5 37t149 99.5t99.5 149t37 181.5q0 63 -17 123.5t-47 112t-73 94.5t-94.5 73t-112 47t-123.5 17q-95 0 -181.5 -37
t-149 -99.5t-99.5 -149t-37 -181.5t37 -181.5t99.5 -149t149 -99.5t181.5 -37zM500 -167zM883 318v-18v-19q-1 -9 -1.5 -17.5t-1.5 -15.5q-1 -8 -2 -13q-1 -6 -3 -14v-2q-2 -7 -3 -12q-4 -15 -10 -34q-1 -3 -4 -9q-2 -7 -5 -14q-4 -10 -7 -16q-3 -7 -8 -15q-3 -5 -6 -11
l-8 -14l-130 75l8 14q37 65 30 139t-56 130l-107 -106q18 -27 13.5 -59t-29.5 -52t-57.5 -18.5t-55 24t-24 55t18.5 57.5t52 29.5t59 -13.5l106 107q-16 15 -35 26q-55 31 -117 31t-117 -31q-54 -31 -85 -85t-31 -117t31 -117l8 -14l-130 -75l-8 15q-3 5 -6 11l-8 14
q-3 8 -7 17q-3 5 -6 13q-2 6 -3 10q-6 17 -10 34q-1 4 -3 11v2q-2 10 -3 16q-1 3 -2 11q-1 6 -2 16q0 5 -1 16v2v18v19q1 9 1.5 17.5t1.5 15.5q1 8 2 12q1 7 3 14v3q2 7 3 12q4 15 10 33q1 4 4 10q2 6 5 13q4 11 8 17q3 7 7 15q9 17 20 33q2 4 9 12l2 3v0q4 6 10 13q1 2 3 3
q3 5 8 10q15 16 30 30q7 7 10 9l2 1l1 1q5 4 7 6q3 2 7 5l3 3l10 6l2 2l29 17l2 1t3 2q7 4 14 7q7 4 17 8l13 5q7 3 10 4q17 6 34 10q3 1 12.5 3t16.5 3q3 0 11 2q7 0 16 1q5 1 16 2h2q19 1 37 0q12 -1 17 -2q11 -1 16 -1q8 -2 13 -2q5 -1 14 -3q10 -2 14 -3q15 -4 34 -10
q3 -1 9 -4q7 -2 14 -5q10 -5 17 -8l14 -7q17 -9 33 -20q5 -3 12 -8l3 -3h1q6 -4 12 -10q2 -1 2 -2q1 0 2 -1q3 -2 9 -8q1 -1 3 -2q1 -1 1 -2l29 30l24 -24l-29 -29q0 -1 1 -2t2 -1q5 -7 8 -10q1 -1 2 -3q7 -8 11 -14l3 -3q3 -4 7 -10l0.5 -0.5l0.5 -0.5v-1q11 -16 20 -34
l8 -14q3 -8 7 -17q3 -5 6 -13q2 -6 3 -10q6 -17 10 -34q1 -4 3 -11v-2q2 -10 3 -16q1 -3 2 -11q1 -6 2 -16q0 -5 1 -16v-2zM840 384q-4 15 -10 32q0 2 -3 8l-4 12l-7 16q-2 2 -5 8l-72 -41q24 -49 27 -102h84v1v1v2l-1 4v8q-2 13 -2 14q-1 8 -2 10q-1 9 -2 15l-1 2
q0 1 -1 4.5t-1 5.5zM533 648q-4 1 -15 2h-1v-85q53 -3 102 -26l41 72q-7 4 -8 4q-6 3 -16 7q-6 3 -11 5q-7 2 -9 3q-17 6 -31 10q-5 1 -12 2q-8 2 -14 3q-4 1 -11 2q-5 0 -15 1zM376 627q-7 -2 -12 -5q-9 -3 -15 -6q-3 -2 -9 -5l41 -72q49 23 102 26v84h-2q-10 0 -14 -1
q-10 -1 -14 -1q-8 -1 -10 -2q-9 -1 -15 -2l-12 -3q-15 -4 -32 -10q-2 0 -8 -3zM153 347q-1 -5 -1 -14q-1 -5 -2 -15v-1h84q3 53 27 102l-72 41q-4 -6 -4 -8q-4 -6 -8 -16q-2 -6 -4 -11q-3 -6 -3 -9q-6 -17 -10 -31q-1 -6 -2 -11l-1 -3l-2 -12q-1 -5 -2 -12zM189 140l72 41
q-24 49 -27 102h-84v-1v-1v-2l1 -4v-8q2 -13 2 -14q1 -8 2 -10q1 -9 2 -15l1 -2q0 -1 0.5 -3l1 -4t0.5 -3q4 -15 10 -32q0 -2 3 -8l4 -12l7 -16q2 -2 5 -8zM278 447q30 45 75 75l-42 72q-1 0 -3.5 -1.5t-3.5 -2.5q-10 -7 -13 -10q-6 -4 -12 -9q-1 0 -2 -1l-3 -2q0 -1 -7 -7
q-15 -14 -28 -28q-6 -7 -7 -8q-2 -3 -5 -5q-4 -5 -7.5 -10l-9.5 -14q-1 -1 -2.5 -3.5t-1.5 -3.5zM647 522q16 -10 29 -22l59 59l-1 1l-1 1q-7 6 -8 7l-2 2q-2 1 -3 2q-6 5 -10 8q-5 4 -14 10q-2 1 -4 2.5t-3 1.5zM550 300q0 11 -5 21l-13 -12q1 -5 1 -9q0 -14 -9.5 -23.5
t-23.5 -9.5t-23.5 9.5t-9.5 23.5t9.5 23.5t23.5 9.5q4 0 9 -1l12 13q-10 5 -21 5q-21 0 -35.5 -14.5t-14.5 -35.5t14.5 -35.5t35.5 -14.5t35.5 14.5t14.5 35.5zM700 476q12 -13 22 -29l72 42q0 1 -1.5 3t-2.5 4q-5 8 -9 13q-4 6 -9 12q-2 2 -4 4.5t-7 7.5q0 1 -1 1.5l-1 0.5
zM847 253q1 5 1 14q1 5 2 15v1h-84q-3 -53 -27 -102l72 -41q4 7 4 8q4 6 8 16q2 6 4 11q3 6 3 9q6 17 10 31q1 6 2 11l1 3l2 12q1 5 2 12zM847 253zM317 17v100h366v-100h-366zM350 83v-33h300v33h-300zM350 83z" />
    <glyph glyph-name="Q" unicode="Q" 
d="M500 300q-104 0 -177 73t-73 177t73 177t177 73t177 -73t73 -177t-73 -177t-177 -73zM956 36q2 -33 2 -67q0 -79 -47.5 -124t-125.5 -45h-570q-78 0 -125.5 45t-47.5 124q0 34 2 67t9 71t17.5 70.5t28 63.5t40 53t55.5 35t73 13q6 0 27 -14l49 -32q27 -17 70 -31t87 -14
t87 14t70 31l49 32t27 14q40 0 73 -13t55.5 -35t40 -53t28 -63.5t17.5 -70.5t9 -71z" />
    <glyph glyph-name="R" unicode="R" 
d="M933 551q67 -82 67 -179.5t-67 -179.5t-182 -130t-251 -48q-39 0 -81 5q-110 -98 -257 -135q-27 -8 -63 -12q-10 -2 -17.5 4.5t-9.5 16.5q-2 3 -0.5 7t1.5 5.5t2 5.5l4 5q1 1 4 5q4 4 4 5q3 4 17 19l20 21q5 6 16.5 22t18.5 28.5t15 33t15 42.5q-88 50 -138.5 123
t-50.5 157q0 72 39.5 138t106.5 114t159.5 76.5t194.5 28.5q136 0 251 -48t182 -130z" />
    <glyph glyph-name="S" unicode="S" 
d="M750 300l-500 -500v250l250 250l-250 250v250z" />
    <glyph glyph-name="T" unicode="T" 
d="M250 300l500 500v-250l-250 -250l250 -250v-250z" />
    <glyph glyph-name="U" unicode="U" 
d="M500 50l-500 500h250l250 -250l250 250h250z" />
    <glyph glyph-name="V" unicode="V" 
d="M500 550l500 -500h-250l-250 250l-250 -250h-250z" />
    <glyph glyph-name="W" unicode="W" 
d="M219 709v-56h-39v56q0 39 26.5 65t65.5 26h218q39 0 66 -26t27 -65v-56h-40v56q0 15 -7 26.5t-19 18.5t-27 7h-218q-22 0 -37.5 -15t-15.5 -37zM219 709zM149 -200q-22 0 -40.5 12t-29 32t-10.5 44v607h624v-607q0 -36 -23 -62t-56 -26h-465zM507 401v-464q0 -8 5.5 -14
t13.5 -6t14 6t6 14v464q0 9 -6 14.5t-14 5.5t-13.5 -5.5t-5.5 -14.5zM362 401v-464q0 -8 5.5 -14t13.5 -6q4 0 8 2t6.5 4.5t4 6t1.5 7.5v464q0 9 -6 14.5t-14 5.5t-13.5 -5.5t-5.5 -14.5zM217 401v-464q0 -8 5.5 -14t14 -6t14 6t5.5 14v464q0 9 -5.5 14.5t-14.5 5.5
q-5 0 -9.5 -2.5t-7 -7t-2.5 -10.5zM217 401zM49 535q-13 0 -24.5 6.5t-18 17.5t-6.5 25q0 20 14.5 34.5t34.5 14.5h665q20 0 34.5 -14.5t14.5 -34.5q0 -10 -4 -19t-10.5 -16t-15.5 -10.5t-19 -3.5h-665zM49 535z" />
    <glyph glyph-name="X" unicode="X" 
d="M1000 682l-382 -382l382 -382l-118 -118l-382 382l-382 -382l-118 118l382 382l-382 382l118 118l382 -382l382 382z" />
    <glyph glyph-name="Y" unicode="Y" 
d="M906 482q2 -14 -8.5 -24.5t-24.5 -8.5l-291 42q-17 2 -23 19.5t7 29.5l58 58q-60 26 -126 26q-88 0 -163 -44t-118 -119t-41 -163q0 -14 -10.5 -23t-23.5 -7l-117 17q-11 1 -18 9.5t-7 20.5q3 100 43 190t106 154.5t157 102.5t192 38q138 0 256 -71l61 60q12 13 29.5 7
t19.5 -24zM975 313q11 -2 18 -10.5t7 -19.5q-3 -100 -43.5 -189.5t-106.5 -154t-157 -102t-191 -37.5q-138 0 -256 71l-62 -62q-13 -13 -30 -7t-19 24l-42 290q-2 14 8.5 24.5t24.5 8.5l290 -42q18 -2 24 -19.5t-7 -29.5l-56 -57q60 -25 125 -25q88 0 162 43t117 117.5
t43 161.5q0 15 11 24t23 8z" />
    <glyph glyph-name="Z" unicode="Z" 
d="M988 350q12 -12 12 -29t-12 -30l-375 -374q-20 -20 -45.5 -9.5t-25.5 38.5v214q-14 4 -36.5 2.5l-47 -3t-55 -10.5t-61.5 -20.5t-66 -34t-67.5 -50t-66.5 -69.5t-64 -92q-12 -20 -36 -20q-5 0 -11 1q-13 4 -21.5 15t-8.5 25l-1 8q-3 113 26 213q50 174 193 285t323 119
v167q0 27 25.5 38t45.5 -9z" />
    <glyph glyph-name="a" unicode="a" 
d="M866 -64q4 -55 -33 -95.5t-92 -40.5h-482q-55 0 -92.5 40.5t-32.5 95.5l54 586q1 12 10 20t21 8h93v62q0 78 55 133t133 55t132.5 -55t54.5 -133v-62h94q12 0 21 -8t10 -20zM625 550v62q0 53 -36.5 89.5t-88.5 36.5t-88.5 -37t-36.5 -89v-62h250z" />
    <glyph glyph-name="b" unicode="b" 
d="M230 342q8 0 14 -6.5t6 -14.5v-500q0 -9 -6 -15t-14 -6h-209q-5 0 -10 3t-8 7.5t-3 10.5v500q0 8 6.5 14.5t14.5 6.5h209zM604 800q8 0 14.5 -6t6.5 -15v-958q0 -9 -6.5 -15t-14.5 -6h-209q-8 0 -14 6t-6 15v958q0 9 6 15t14 6h209zM979 592q8 0 14.5 -6.5t6.5 -14.5
v-750q0 -9 -6.5 -15t-14.5 -6h-209q-8 0 -14 6t-6 15v750q0 8 6 14.5t14 6.5h209z" />
    <glyph glyph-name="c" unicode="c" 
d="M214 -109q-67 47 -116 113q-98 133 -98 296q0 101 39.5 194t106.5 160t159.5 106.5t194.5 39.5q112 0 215 -49q61 -30 112.5 -74.5t89.5 -101t59 -122.5q24 -75 24 -153q0 -81 -25.5 -157.5t-71.5 -138t-107.5 -107.5t-138 -71.5t-157.5 -25.5q-157 0 -286 91zM841 580
q-5 6 -13 6t-14 -5l-131 -129q-13 -13 -2 -29q12 -18 20 -38q3 -7 10.5 -10.5t15.5 -1.5l174 57q8 2 11.5 9t1.5 15q-26 68 -73 126zM602 515q-3 -8 -0.5 -15.5t9.5 -11.5q2 -1 5 -3q7 -4 14.5 -2.5t11.5 7.5l98 157q4 6 2.5 14t-8.5 13q-13 8 -27 15q-7 4 -14.5 1.5
t-11.5 -10.5zM500 430q-54 0 -92 -38t-38 -92t38 -92t92 -38t92 38t38 92t-38 92t-92 38zM161 50q-7 -5 -8 -12.5t4 -14.5q33 -41 74 -73q7 -5 15 -3.5t12 8.5l106 150q10 15 -5 28q-12 10 -23 22q-13 15 -27 4zM420 300q0 22 10.5 40.5t29 29t40.5 10.5q33 0 56.5 -23.5
t23.5 -56.5t-23.5 -56.5t-56.5 -23.5t-56.5 23.5t-23.5 56.5z" />
    <glyph glyph-name="d" unicode="d" 
d="M983 353q26 -24 13 -56q-5 -15 -18 -24t-29 -9h-72v-410q0 -6 -2.5 -11.5t-6.5 -9.5t-9 -6t-11 -2h-246q-13 0 -21.5 8.5t-8.5 20.5v249h-144v-249q0 -12 -8.5 -20.5t-21.5 -8.5h-246q-12 0 -20.5 8.5t-8.5 20.5v410h-72q-16 0 -29 9t-18 24q-13 32 13 56l448 409
q10 9 22.5 12t25 0t22.5 -12zM869 717q12 0 21 -9t9 -21v-177l-227 207h197z" />
    <glyph glyph-name="e" unicode="e" 
d="M458 227v-396q0 -13 -9 -22t-22 -9h-396q-13 0 -22 9t-9 22v396q0 13 9 22t22 9h157v-125q0 -17 12 -29t29 -12t29.5 12t12.5 29v125h156q13 0 22 -9t9 -22zM1000 227v-396q0 -13 -9 -22t-22 -9h-396q-13 0 -22 9t-9 22v396q0 13 9 22t22 9h156v-125q0 -17 12.5 -29
t29.5 -12t29 12t12 29v125h157q13 0 22 -9t9 -22zM729 769v-396q0 -9 -4 -16t-11.5 -11t-15.5 -4h-396q-13 0 -22 9t-9 22v396q0 6 2.5 12t6.5 10t10 6.5t12 2.5h156v-125q0 -17 12.5 -29.5t29.5 -12.5t29.5 12.5t12.5 29.5v125h156q13 0 22 -9t9 -22z" />
    <glyph glyph-name="f" unicode="f" 
d="M828 167q6 -6 6 -14.5t-7 -14.5l-84 -82q-6 -6 -14.5 -6t-14.5 6l-27 27l-130 -130q-66 -67 -161 -67q-80 0 -145 53l-132 -133q-6 -6 -15 -6t-15 6l-83 83q-6 6 -6 15t6 15l133 132q-56 67 -52 155.5t66 150.5l130 130l-27 27q-6 6 -6 14.5t6 14.5l82 82q6 7 14.5 7
t14.5 -6zM727 777q23 -24 23 -57t-23 -56l-169 -169l-113 112l169 170q23 23 56 23t57 -23zM976 527q24 -24 24 -57t-23 -56l-169 -168l-113 112l169 169q23 23 56 23t56 -23z" />
    <glyph glyph-name="g" unicode="g" 
d="M780 747q30 0 51.5 -21.5t21.5 -52.5v-307q0 -30 -21 -51l-400 -400q-21 -22 -51.5 -22t-51.5 22l-308 307q-21 21 -21 51.5t21 52.5l400 399q22 22 52 22h307zM651.5 490q22.5 0 39 16t16.5 39t-16.5 39t-39 16t-38.5 -16t-16 -39t16 -39t38.5 -16zM927 673
q30 0 51.5 -21t21.5 -52v-307q0 -30 -22 -52l-366 -366q-22 -22 -52 -22t-52 22l-6 6l406 406q19 19 19 45v341z" />
  </font>
</defs>
</svg>
